<?xml version="1.0" encoding="UTF-8"?>
<svg id="_圖層_2" data-name="圖層 2" xmlns="http://www.w3.org/2000/svg" viewBox="0 0 161.86 160.57">
  <defs>
    <style>
      .cls-1 {
        fill: #bf944e;
      }

      .cls-2 {
        fill: #004098;
      }
    </style>
  </defs>
  <g id="Layer_1" data-name="Layer 1">
    <g>
      <path class="cls-1" d="M88.24,14.53c.25-1.07-.81-1.36-1.11-1.42-2.04-.19-4.11-.3-6.2-.3s-4.15.11-6.2.3c-.3.06-1.35.34-1.11,1.4l7.31,31.09,7.27-30.83s.01-.12.04-.24Z"/>
      <path class="cls-1" d="M63.87,1.34s-.04-.11-.06-.28C63.71.05,62.81-.02,62.36,0c-6.24,1.46-12.19,3.64-17.78,6.45-.28.18-1.2.86-.58,1.96l25.53,39.1L63.87,1.34Z"/>
      <path class="cls-1" d="M33.94,34.28l25.58,19.12-14.25-28.29s-.07-.1-.12-.21c-.5-.98-1.5-.52-1.76-.37-1.68,1.17-3.34,2.41-4.94,3.75-1.6,1.34-3.12,2.75-4.56,4.21-.19.24-.81,1.13.05,1.79Z"/>
      <path class="cls-1" d="M18,30.45s-.1-.06-.22-.18c-.72-.7-1.46-.18-1.79.12-3.84,5.13-7,10.63-9.48,16.38-.1.31-.37,1.43.82,1.88l44.68,13.54L18,30.45Z"/>
      <path class="cls-1" d="M16.24,74.93l31.89-1.8-29.1-12.51s-.11-.04-.23-.08c-1.02-.43-1.48.56-1.59.85-.54,1.97-1,3.99-1.36,6.05-.36,2.06-.62,4.11-.79,6.15,0,.31.11,1.39,1.18,1.34Z"/>
      <path class="cls-1" d="M1.57,82.24s-.11.02-.29,0c-1.01-.07-1.24.8-1.29,1.24.36,6.4,1.47,12.64,3.26,18.64.12.3.64,1.33,1.84.91l42.93-18.34-46.46-2.45Z"/>
      <path class="cls-1" d="M117.28,6.46C111.69,3.65,105.73,1.47,99.49,0c-.44-.02-1.34.05-1.45,1.05-.02.17-.04.26-.06.28l-5.65,46.18,25.52-39.1c.62-1.1-.3-1.78-.58-1.96Z"/>
      <path class="cls-1" d="M127.97,32.49c-1.44-1.46-2.96-2.87-4.55-4.21-1.6-1.34-3.25-2.59-4.94-3.75-.27-.15-1.26-.61-1.77.37-.05.11-.09.17-.12.21l-14.25,28.29,25.59-19.12c.86-.66.24-1.55.04-1.79Z"/>
      <path class="cls-1" d="M155.35,46.77c-2.47-5.75-5.64-11.25-9.48-16.38-.33-.3-1.06-.83-1.79-.12-.12.12-.2.17-.22.18l-34.02,31.74,44.68-13.54c1.19-.45.92-1.56.82-1.88Z"/>
      <path class="cls-1" d="M146.8,73.59c-.17-2.04-.42-4.1-.78-6.15-.36-2.06-.83-4.07-1.37-6.05-.11-.29-.57-1.29-1.59-.85-.11.05-.18.07-.23.08l-29.1,12.51,31.88,1.8c1.08.05,1.18-1.03,1.19-1.34Z"/>
      <path class="cls-1" d="M158.59,102.13c1.8-5.99,2.91-12.24,3.27-18.64-.05-.44-.28-1.32-1.29-1.24-.17.01-.26,0-.29,0l-46.46,2.45,42.93,18.34c1.2.43,1.71-.6,1.83-.91Z"/>
    </g>
    <path class="cls-2" d="M119.75,145.25c3.24,2.36,6.8,1.98,13.66-3.79,6.88-5.77,7.87-9.2,6.11-12.8l-4.31-5.73c-.05-.11-.14-.24-.26-.41-2.04-2.74-.18-5.52-.18-5.52h-.02c2.35-3.3,4.4-6.85,6.11-10.58.37-1.15-.4-1.77-.9-2.04l-28.77-8.68c-.57-.04-1.55.08-2.18,1.07-5.91,9.27-16.28,15.43-28.09,15.43s-22.19-6.17-28.1-15.44c-.94-1.45-2.61-.99-2.61-.99h0s-28.08,8.5-28.08,8.5c-.38.15-1.61.77-1.15,2.17,1.71,3.72,3.75,7.26,6.1,10.57h-.02s1.86,2.77-.18,5.51c-.12.17-.21.3-.26.41l-4.3,5.73c-1.76,3.6-.76,7.03,6.11,12.8,6.87,5.77,10.42,6.15,13.67,3.79l4.89-5.23c.1-.07.21-.18.36-.33,2.34-2.48,5.4-1.13,5.4-1.13v-.02c3.63,1.72,7.45,3.12,11.42,4.16h-.01s3.21.94,3.41,4.35c.01.2.03.36.06.48l.39,7.15c.96,3.89,3.93,5.88,12.9,5.88s11.94-1.99,12.91-5.88l.39-7.16c.03-.12.05-.27.06-.48.2-3.41,3.41-4.34,3.41-4.34h-.02c3.97-1.04,7.79-2.44,11.43-4.17v.02s3.05-1.35,5.39,1.13c.14.15.26.26.36.33l4.89,5.23Z"/>
  </g>
</svg>